<?xml version="1.0" standalone="no"?>
<!DOCTYPE svg PUBLIC "-//W3C//DTD SVG 1.1//EN" "http://www.w3.org/Graphics/SVG/1.1/DTD/svg11.dtd" >
<svg xmlns="http://www.w3.org/2000/svg">
<metadata></metadata>
<defs>
<font id="avantgardegothiccdemi" horiz-adv-x="1146" >
<font-face units-per-em="2048" ascent="1638" descent="-410" />
<missing-glyph horiz-adv-x="477" />
<glyph unicode="&#xd;" horiz-adv-x="682" />
<glyph unicode=" "  horiz-adv-x="477" />
<glyph unicode="&#x09;" horiz-adv-x="477" />
<glyph unicode="&#xa0;" horiz-adv-x="477" />
<glyph unicode="!" horiz-adv-x="573" d="M150 0v260h272v-260h-272zM150 385v1131h272v-1131h-272z" />
<glyph unicode="&#x22;" horiz-adv-x="737" d="M154 1053v463h153v-463h-153zM430 1053v463h154v-463h-154z" />
<glyph unicode="#" d="M8 477l41 201h234l39 188h-234l39 201h233l93 449h184l-92 -449h176l92 449h184l-92 -449h234l-39 -201h-234l-39 -188h234l-41 -201h-234l-98 -477h-184l98 477h-176l-98 -477h-185l99 477h-234zM467 678h176l39 188h-176z" />
<glyph unicode="$" d="M121 485v25h272q0 -74 50.5 -125t125.5 -51q80 0 128 51t48 127q0 38 -14.5 69t-35.5 51.5t-56.5 39.5t-64 29.5t-72.5 23.5q-33 10 -54 17.5t-58.5 24.5t-62.5 35t-55.5 48.5t-48.5 65.5t-30.5 85t-12.5 109q0 138 72 239t201 134v268h256v-268q117 -32 186.5 -128.5 t69.5 -219.5h-256q-2 52 -38.5 87t-97.5 35q-62 0 -99.5 -40t-37.5 -95q0 -43 17 -74t56 -52.5t60 -30t71 -22.5l9 -3q31 -9 56 -18t64.5 -27.5t70 -39.5t64.5 -55.5t56.5 -74t37 -95.5t14.5 -120q0 -152 -83 -262.5t-220 -149.5v-272h-256v272q-135 30 -233.5 139.5 t-98.5 247.5z" />
<glyph unicode="%" horiz-adv-x="1761" d="M43 1174q0 152 107.5 260t261.5 108q151 0 258.5 -107.5t107.5 -260.5t-107.5 -261t-258.5 -108q-153 0 -261 108t-108 261zM270 1174q0 -56 42 -99t98 -43t98.5 42t42.5 100t-41.5 99.5t-97.5 41.5q-57 0 -99.5 -42t-42.5 -99zM457 0l626 1516h209l-626 -1516h-209z M973 332q0 154 107 261t261 107t261.5 -107t107.5 -261t-107.5 -261.5t-261.5 -107.5t-261 107.5t-107 261.5zM1200 332q0 -59 41.5 -100.5t99.5 -41.5q59 0 100.5 42t41.5 100t-41.5 99.5t-100.5 41.5t-100 -41.5t-41 -99.5z" />
<glyph unicode="&#x26;" horiz-adv-x="1392" d="M72 440q0 86 25.5 160.5t69.5 127t90 88.5t99 61q-127 122 -127 274q0 167 110.5 279t274.5 112q162 0 274.5 -106.5t112.5 -266.5q0 -70 -21 -131.5t-57 -106.5t-75 -77.5t-84 -56.5l139 -156l148 252h301l-260 -457l268 -291l-199 -174l-207 217l-22 -32 q-24 -35 -49.5 -62.5t-68.5 -60.5t-104 -51.5t-135 -18.5q-140 0 -254.5 59t-181.5 169t-67 249zM344 428q0 -87 58 -147t149 -60q40 0 74.5 15t59 42.5t37 45t26.5 43.5l16 28l-236 264l-41 -18q-57 -26 -100 -79t-43 -134zM489 1157q0 -69 95 -164l8 -8q151 57 151 170 q0 54 -33 91.5t-98 37.5q-64 0 -93.5 -40.5t-29.5 -86.5z" />
<glyph unicode="'" horiz-adv-x="450" d="M152 1053v463h155v-463h-155z" />
<glyph unicode="(" horiz-adv-x="778" d="M152 627q0 122 33 249.5t98 250.5t177 227t255 162v-285q-74 -58 -129 -130.5t-83.5 -136.5t-45.5 -135t-21 -115t-4 -87t4 -87t21 -115t45.5 -135t83.5 -136.5t129 -130.5v-285q-143 58 -255 162t-177 227t-98 250.5t-33 249.5z" />
<glyph unicode=")" horiz-adv-x="778" d="M63 23q74 58 129 130.5t83.5 136.5t45.5 135t21 115t4 87t-4 87t-21 115t-45.5 135t-83.5 136.5t-129 130.5v285q143 -58 255 -162t177.5 -227t98.5 -250.5t33 -249.5t-33 -249.5t-98.5 -250.5t-177.5 -227t-255 -162v285z" />
<glyph unicode="*" horiz-adv-x="901" d="M143 1167v142l205 -13l-110 183l124 61l93 -184l94 186l117 -72l-111 -174l205 15v-144l-209 13l115 -172l-115 -74l-96 188l-90 -188l-127 61l110 187z" />
<glyph unicode="+" horiz-adv-x="1228" d="M98 539v237h398v391h237v-391h397v-237h-397v-406h-237v406h-398z" />
<glyph unicode="," horiz-adv-x="573" d="M150 0v272h272v-262q0 -37 -1 -52.5t-6.5 -51.5t-22.5 -65t-44 -54q-77 -71 -194 -74v137q49 0 82.5 30.5t33.5 84.5v35h-120z" />
<glyph unicode="-" horiz-adv-x="860" d="M145 530v242h570v-242h-570z" />
<glyph unicode="." horiz-adv-x="573" d="M150 0v272h272v-272h-272z" />
<glyph unicode="/" horiz-adv-x="942" d="M53 -262l662 1778h192l-661 -1778h-193z" />
<glyph unicode="0" d="M66 508v489q0 253 136.5 399t370.5 146t371 -146t137 -399v-489q0 -253 -137 -399t-371 -146t-370.5 146t-136.5 399zM338 508q0 -75 18 -131t43 -84.5t60 -46t60.5 -21.5t53.5 -4t53.5 4t61 21.5t60.5 46t43 84.5t18 131v489q0 75 -18 131t-43 84.5t-60.5 46t-61 21.5 t-53.5 4t-53.5 -4t-60.5 -21.5t-60 -46t-43 -84.5t-18 -131v-489z" />
<glyph unicode="1" d="M102 891l486 625h313v-1516h-272v1135l-312 -408z" />
<glyph unicode="2" d="M70 991q-3 83 13.5 161t55 149.5t96.5 124.5t143.5 84.5t188.5 31.5q217 0 357.5 -134t140.5 -357q0 -137 -71 -261.5t-238 -273.5l-289 -258h598v-258h-979v258l522 485q83 77 110 110q75 93 75 202q0 95 -55.5 162t-162.5 67q-62 0 -110.5 -26.5t-75.5 -69.5t-39 -94 t-8 -103h-272z" />
<glyph unicode="3" d="M31 449h272q10 -94 73 -161t171 -67q105 0 173 71t68 175q0 53 -14 95.5t-34.5 68.5t-52 45.5t-56.5 28.5t-58 14t-47.5 5.5t-33.5 0.5h-48v258h39q21 0 39 1.5t49.5 10t53.5 24t38.5 47t16.5 75.5q0 61 -35 102t-92 41t-98.5 -35.5t-40.5 -101.5h-273q-2 173 111.5 284 t296.5 111q171 0 287 -110t116 -293q0 -170 -131 -271q117 -48 178.5 -155t61.5 -248q0 -148 -69.5 -263.5t-187 -177t-259.5 -61.5q-213 0 -357.5 138.5t-156.5 347.5z" />
<glyph unicode="4" d="M0 225v224l696 1067h230v-1033h159v-258h-159v-225h-273v225h-653zM291 483h362v570z" />
<glyph unicode="5" d="M25 449h272q16 -99 81 -163.5t163 -64.5q112 0 182 75.5t70 201.5q0 114 -70 189t-184 75q-56 0 -111.5 -27.5t-91.5 -81.5l-244 68l144 795h698l-14 -259h-482l-47 -280q89 43 189 43q144 0 256 -73t170.5 -192.5t58.5 -260.5q0 -227 -147.5 -379t-374.5 -152 q-110 0 -203.5 38.5t-158.5 105.5t-105.5 154.5t-50.5 187.5z" />
<glyph unicode="6" d="M45 504q0 181 111 350l432 662h321l-338 -517q47 7 76 7q91 0 172 -35t142 -99t97 -160t36 -210q0 -230 -145 -384.5t-378 -154.5q-231 0 -378.5 153.5t-147.5 387.5zM317 494q0 -119 68.5 -196t183.5 -77t183.5 77t68.5 196q0 113 -68.5 189.5t-183.5 76.5t-183.5 -76.5 t-68.5 -189.5z" />
<glyph unicode="7" d="M133 1257v259h891v-259l-547 -1257h-303l565 1257h-606z" />
<glyph unicode="8" d="M70 453q0 138 67 237.5t180 151.5q-76 50 -113.5 128t-37.5 156q0 58 15 115.5t47.5 112t79 96t115 67t150.5 25.5q178 0 293 -118t115 -298q0 -178 -152 -284q46 -21 87 -52t79 -77.5t60 -113.5t22 -146q0 -145 -67.5 -257.5t-182 -172.5t-254.5 -60q-214 0 -358.5 136 t-144.5 354zM342 457q0 -100 66 -168t165 -68t165.5 68t66.5 168q0 101 -67 171t-165 70t-164.5 -69.5t-66.5 -171.5zM414 1120q0 -70 46 -117t115 -47q68 0 113 47t45 117t-45 117t-113 47q-69 0 -115 -47t-46 -117z" />
<glyph unicode="9" d="M45 1008q0 150 63.5 271.5t183.5 192t275 70.5q232 0 379.5 -151t147.5 -385q0 -66 -12 -125.5t-38.5 -114.5t-42.5 -82.5t-49 -77.5l-401 -606h-322l346 514q-37 -6 -83 -6q-89 0 -170 35.5t-142.5 99.5t-98 159t-36.5 206zM317 1016q0 -124 74 -193t178 -69 q115 0 183.5 75.5t68.5 186.5q0 118 -68.5 193t-183.5 75q-116 0 -184 -75t-68 -193z" />
<glyph unicode=":" horiz-adv-x="573" d="M150 0v272h272v-272h-272zM150 756v272h272v-272h-272z" />
<glyph unicode=";" horiz-adv-x="573" d="M150 0v272h272v-262q0 -37 -1 -52.5t-6.5 -51.5t-22.5 -65t-44 -54q-77 -71 -194 -74v137q49 0 82.5 30.5t33.5 84.5v35h-120zM150 756v272h272v-272h-272z" />
<glyph unicode="&#x3c;" horiz-adv-x="1228" d="M88 547v201l1042 460v-227l-741 -334l741 -334v-227z" />
<glyph unicode="=" horiz-adv-x="1228" d="M98 334v235h1032v-235h-1032zM98 733v236h1032v-236h-1032z" />
<glyph unicode="&#x3e;" horiz-adv-x="1228" d="M98 86v227l742 334l-742 334v227l1043 -460v-201z" />
<glyph unicode="?" d="M78 1069q-1 89 27.5 171.5t83 151t146 109.5t206.5 41q97 0 175.5 -26t132 -70t89.5 -105t52 -129t16 -143q0 -47 -9.5 -88t-20 -68t-36.5 -60.5t-40 -48.5t-51 -50.5t-50 -48.5q-63 -61 -98.5 -135.5t-30.5 -184.5h-273q-14 264 152 430q21 21 54 50t52 47t39.5 43 t29.5 54t9 64q0 92 -49 151.5t-143 59.5q-88 0 -140.5 -62.5t-50.5 -152.5h-272zM397 0v260h273v-260h-273z" />
<glyph unicode="@" horiz-adv-x="1515" d="M6 752q0 228 100 408t282 281t415 101q114 0 219 -26t197.5 -81.5t160.5 -134t107 -191t39 -245.5q0 -127 -41.5 -235t-107.5 -177.5t-145 -108t-157 -38.5q-57 0 -99.5 26t-64.5 72q-42 -42 -98 -66t-87 -28t-56 -4q-44 0 -88.5 11.5t-90.5 39.5t-81 68.5t-57.5 105.5 t-22.5 144q0 128 52 236.5t150.5 175.5t223.5 67q168 0 254 -123l22 105h197l-111 -568q-6 -18 -6 -51q0 -6 4 -14q11 -17 37 -17q81 0 149 109.5t68 271.5q0 107 -32.5 196.5t-87.5 151t-129 104t-155.5 62t-168.5 19.5q-183 0 -328 -83.5t-226 -231.5t-81 -332 q0 -193 89.5 -342t237 -226.5t326.5 -77.5q169 0 340 91l74 -115q-185 -119 -436 -119q-227 0 -407 101t-280 281t-100 407zM580 698q0 -78 42.5 -126t116.5 -48q43 0 87.5 21t72.5 53q53 61 53 158q0 92 -46.5 135t-108.5 43q-32 0 -67 -13t-70 -38.5t-57.5 -74 t-22.5 -110.5z" />
<glyph unicode="A" horiz-adv-x="1515" d="M14 0l631 1516h225l631 -1516h-309l-156 391h-557l-155 -391h-310zM586 664h344l-172 442z" />
<glyph unicode="B" horiz-adv-x="1187" d="M139 0v1516h365q33 0 60 -1t84.5 -9t103 -22t100 -44t91.5 -71t62 -106.5t25 -146.5q0 -66 -19 -120t-50 -88t-52.5 -51t-44.5 -30q122 -41 190 -139t68 -227q0 -71 -15.5 -133t-57.5 -123.5t-108 -105.5t-174.5 -71.5t-248.5 -27.5h-379zM420 272h182q19 0 38.5 1.5 t59 12t68.5 29t51.5 57t22.5 91.5q0 22 -3.5 43t-18 50.5t-39 50.5t-71 36.5t-108.5 15.5h-182v-387zM420 932h131q52 0 91 13t59 30t32 41t14.5 39.5t2.5 31.5q0 156 -199 156h-131v-311z" />
<glyph unicode="C" horiz-adv-x="1597" d="M61 758q0 86 22 175.5t64 178t109.5 165.5t152.5 136.5t200 94t245 34.5q235 0 421 -121.5t281 -339.5h-319q-150 189 -381 189q-111 0 -208 -42.5t-163.5 -113.5t-104.5 -164t-38 -192q0 -105 40 -201.5t108.5 -167t164.5 -112t203 -41.5q106 0 201.5 43.5t163.5 132.5 h325q-97 -207 -277.5 -328t-420.5 -121q-153 0 -285 49.5t-222.5 130.5t-155.5 185t-95.5 213.5t-30.5 216.5z" />
<glyph unicode="D" horiz-adv-x="1433" d="M139 0v1516h420q144 0 263.5 -27.5t202 -72.5t146 -109t101 -131t61 -145.5t31.5 -145t8 -135.5q0 -34 -2 -68.5t-11.5 -91t-25 -107.5t-46 -112t-70.5 -112t-102.5 -100t-138.5 -83t-181.5 -55t-229.5 -21h-426zM420 272h137q43 0 79 2t93.5 12.5t103 28.5t96.5 54 t84.5 85t56 125t22.5 171q0 493 -549 493h-123v-971z" />
<glyph unicode="E" horiz-adv-x="1064" d="M139 0v1516h813v-273h-532v-350h510v-272h-510v-349h532v-272h-813z" />
<glyph unicode="F" horiz-adv-x="983" d="M139 0v1516h770v-273h-489v-350h467v-272h-467v-621h-281z" />
<glyph unicode="G" horiz-adv-x="1720" d="M61 748q0 111 32 222.5t99.5 214.5t160.5 182.5t226 127t287 47.5q261 0 454.5 -125t278.5 -348h-335q-122 201 -398 201q-103 0 -190 -30.5t-147.5 -81t-103.5 -117.5t-63 -138.5t-20 -144.5q0 -98 35.5 -190.5t101.5 -167t170 -119.5t230 -45q146 0 264.5 68.5 t177.5 203.5h-633v264h987q-1 -113 -28.5 -223t-90 -217t-153 -188t-228.5 -131t-305 -50q-160 0 -295 46.5t-228.5 124.5t-159 180t-96 212t-30.5 222z" />
<glyph unicode="H" horiz-adv-x="1392" d="M139 0v1516h281v-609h553v609h280v-1516h-280v635h-553v-635h-281z" />
<glyph unicode="I" horiz-adv-x="573" d="M145 0v1516h281v-1516h-281z" />
<glyph unicode="J" horiz-adv-x="983" d="M14 348h281q13 -112 129 -112q33 0 58 8.5t39.5 25t23.5 33t12.5 42.5t4.5 42t1 41v1088h281v-1070q0 -32 -1 -57t-9 -78.5t-22.5 -94.5t-45 -91t-72 -83t-108.5 -56t-150 -23q-112 0 -207.5 49t-153.5 138t-61 198z" />
<glyph unicode="K" horiz-adv-x="1269" d="M139 0v1516h281v-658l471 658h336l-572 -746l572 -770h-336l-471 664v-664h-281z" />
<glyph unicode="L" horiz-adv-x="901" d="M139 0v1516h281v-1244h463v-272h-744z" />
<glyph unicode="M" horiz-adv-x="1843" d="M139 0v1516h381l402 -1160l401 1160h381v-1516h-281v1135l-383 -1135h-237l-383 1135v-1135h-281z" />
<glyph unicode="N" horiz-adv-x="1515" d="M139 0v1516h281l676 -1024v1024h280v-1516h-280l-676 1024v-1024h-281z" />
<glyph unicode="O" horiz-adv-x="1720" d="M61 750q0 162 61.5 308t167.5 252.5t254.5 169t315.5 62.5t315.5 -62.5t254.5 -169t167.5 -252.5t61.5 -308q0 -216 -105 -396.5t-288.5 -285.5t-405.5 -105t-405.5 105t-288.5 285.5t-105 396.5zM342 756q0 -142 67.5 -261t186 -189t262.5 -70q147 0 267 71t186.5 189.5 t66.5 259.5q0 140 -67 258t-186.5 187t-264.5 69t-264.5 -69t-186.5 -187t-67 -258z" />
<glyph unicode="P" d="M139 0v1516h424q100 0 182.5 -19t137.5 -49.5t97 -73.5t65.5 -85t37.5 -90.5t18.5 -84.5t4.5 -72q0 -62 -13.5 -122t-51.5 -124.5t-96.5 -112.5t-157 -79t-224.5 -31h-143v-573h-281zM420 846h166q239 0 239 198q0 44 -12 79t-34 55.5t-45.5 34.5t-53 20t-50.5 8t-44 2 h-166v-397z" />
<glyph unicode="Q" horiz-adv-x="1720" d="M61 748q0 113 30.5 225t96 215t157 181.5t223.5 125.5t286 47q170 0 317.5 -56.5t255.5 -158t170 -251.5t62 -328q0 -295 -174 -492q76 -41 187 -41h20v-252h-18q-220 0 -376 115q-196 -115 -434 -115q-162 0 -310 61t-256 165t-172.5 250.5t-64.5 308.5zM342 766 q0 -55 4 -82q108 27 209 27q116 0 225 -26t198 -71.5t156.5 -92.5t127.5 -103q116 122 116 325q0 95 -33 186.5t-94.5 168.5t-162 124.5t-224.5 47.5q-150 0 -270 -67t-186 -182t-66 -255zM432 459q81 -116 206.5 -169.5t252.5 -53.5q89 0 172 49q-116 90 -247 144t-245 54 q-71 0 -139 -24z" />
<glyph unicode="R" horiz-adv-x="1187" d="M139 0v1516h439q105 0 191.5 -19.5t144.5 -50.5t102 -74.5t68 -86.5t39 -92.5t19.5 -86t4.5 -72.5q0 -121 -50 -224.5t-144.5 -171t-215.5 -79.5l426 -559h-346l-393 559h-4v-559h-281zM420 793h166q24 0 44.5 1.5t56.5 7.5t64.5 21.5t56 38.5t43 63.5t15.5 92.5 t-15.5 92.5t-43 63.5t-56 38.5t-64.5 21.5t-56.5 7.5t-44.5 1.5h-166v-450z" />
<glyph unicode="S" horiz-adv-x="1064" d="M29 426h293q4 -87 62 -138.5t140 -51.5q91 0 148 53.5t57 136.5q0 54 -20.5 97t-57.5 71t-69 43.5t-74 30.5q-153 52 -224 94q-200 120 -200 350q0 76 29.5 151t84 138t142.5 102t195 39q104 0 188 -37.5t136 -99.5t81 -137t33 -156h-289q0 64 -40.5 111t-117.5 47 q-80 0 -120.5 -46.5t-40.5 -113.5q0 -42 17 -74t50.5 -53.5t59 -32.5t67.5 -24q149 -47 222 -88q229 -130 229 -396q0 -203 -139 -341t-353 -138q-69 0 -137 18t-131.5 56.5t-112.5 92t-78 130t-30 166.5z" />
<glyph unicode="T" horiz-adv-x="860" d="M10 1243v273h842v-273h-281v-1243h-280v1243h-281z" />
<glyph unicode="U" horiz-adv-x="1310" d="M139 569v947h281v-957q0 -32 1 -57t6.5 -60.5t15 -62t27 -55t42 -46.5t61.5 -30t84 -12q46 0 83 12t61 30.5t41.5 47t26.5 55t14.5 62t6.5 60t1 56.5v957h280v-947q0 -156 -41 -275t-113 -190t-163 -106t-199 -35q-48 0 -95 7t-99.5 26t-97.5 48t-87 77t-72 109 t-47.5 148t-17.5 191z" />
<glyph unicode="V" horiz-adv-x="1433" d="M14 1516h295l408 -1154l407 1154h295l-585 -1516h-234z" />
<glyph unicode="W" horiz-adv-x="1843" d="M10 1516h287l264 -1061l258 1061h205l258 -1061l264 1061h287l-440 -1516h-224l-247 1001l-248 -1001h-223z" />
<glyph unicode="X" horiz-adv-x="1392" d="M10 0l522 758l-522 758h328l358 -527l361 527h327l-524 -758l524 -758h-327l-361 524l-358 -524h-328z" />
<glyph unicode="Y" horiz-adv-x="1269" d="M-2 1516h307l332 -699l330 699h307l-498 -957v-559h-280v559z" />
<glyph unicode="Z" horiz-adv-x="1024" d="M37 0v272l577 971h-544v273h880v-273l-577 -971h610v-272h-946z" />
<glyph unicode="[" horiz-adv-x="655" d="M152 356v541q0 53 2.5 92t12 98.5t34 117t61.5 108.5q58 77 144.5 130t191.5 73v-293q-92 -31 -129 -104.5t-37 -221.5v-541q0 -148 37 -221t129 -104v-293q-105 20 -191.5 73t-144.5 130q-37 51 -61.5 108.5t-34 116.5t-12 98t-2.5 92z" />
<glyph unicode="\" horiz-adv-x="1310" d="M172 1516h213l645 -1516h-213z" />
<glyph unicode="]" horiz-adv-x="655" d="M57 31q92 31 129 104t37 221v541q0 148 -37 221.5t-129 104.5v293q105 -20 191.5 -73t144.5 -130q49 -67 75.5 -151.5t31 -138.5t4.5 -126v-541q0 -72 -4.5 -125.5t-31 -138t-75.5 -151.5q-58 -77 -144.5 -130t-191.5 -73v293z" />
<glyph unicode="^" horiz-adv-x="1228" d="M20 369l472 1147h245l471 -1147h-274l-320 848l-319 -848h-275z" />
<glyph unicode="_" horiz-adv-x="1024" d="M0 -98h1024v-185h-1024v185z" />
<glyph unicode="`" horiz-adv-x="860" d="M137 1511l117 209l455 -276l-109 -189z" />
<glyph unicode="a" horiz-adv-x="1351" d="M53 557q0 131 44 245.5t119.5 195t179.5 127t220 46.5q246 0 371 -196h4v160h250v-1135h-250v154h-4q-46 -63 -104 -105t-115 -58.5t-92 -22t-68 -5.5q-109 0 -209 42t-177 117t-123 188t-46 247zM326 557q0 -146 92.5 -241t240.5 -95q146 0 236 96.5t90 251.5 q0 150 -90 247t-236 97q-147 0 -240 -100.5t-93 -255.5z" />
<glyph unicode="b" horiz-adv-x="1351" d="M111 0v1516h272v-500h4q133 155 346 155q115 0 210 -35t160 -94t109.5 -137.5t65 -163.5t20.5 -174q0 -86 -20.5 -170t-65.5 -163t-109 -139t-157.5 -96t-204.5 -36q-114 0 -212.5 47t-163.5 144h-5v-154h-249zM367 582q0 -153 95.5 -257t242.5 -104q144 0 232.5 97.5 t88.5 246.5q0 152 -88 250t-233 98q-141 0 -239.5 -94t-98.5 -237z" />
<glyph unicode="c" horiz-adv-x="1310" d="M61 575q0 81 23 163.5t72.5 160.5t120.5 138.5t175 97t226 36.5q211 0 362 -112.5t209 -300.5h-307q-79 155 -268 155q-157 0 -248.5 -99.5t-91.5 -242.5q0 -150 93.5 -250t246.5 -100q26 0 53 4t68.5 17t80.5 45.5t66 81.5h307q-65 -186 -210 -296t-351 -110 q-123 0 -228 36.5t-177 97.5t-123 140.5t-75 165t-24 172.5z" />
<glyph unicode="d" horiz-adv-x="1351" d="M53 563q0 131 45.5 245t122.5 193t181.5 124.5t220.5 45.5q213 0 342 -153h4v498h272v-1516h-250v154h-4q-138 -191 -373 -191q-112 0 -215 45.5t-179 124t-121.5 191t-45.5 239.5zM326 567q0 -149 91 -247.5t236 -98.5t238.5 97.5t93.5 248.5q0 150 -94.5 248t-237.5 98 q-140 0 -233.5 -96.5t-93.5 -249.5z" />
<glyph unicode="e" horiz-adv-x="1310" d="M61 559q0 80 23 163.5t72.5 164t119 144t171 102t219.5 38.5q169 0 303 -80.5t207 -218t73 -305.5q0 -80 -6 -121h-889q26 -104 107 -164.5t190 -60.5q165 0 254 107h307q-31 -74 -76 -133.5t-89.5 -96.5t-98.5 -64.5t-95 -40.5t-86 -20.5t-65 -8.5t-40 -1 q-118 0 -218.5 37t-169.5 98t-118 139t-72 160t-23 162zM350 688h615q-29 105 -111 165t-188 60q-112 0 -197 -61.5t-119 -163.5z" />
<glyph unicode="f" horiz-adv-x="573" d="M20 893v242h97v12q0 187 107 290t286 103h51v-272h-35q-66 0 -101.5 -36.5t-35.5 -84.5v-12h172v-242h-172v-893h-272v893h-97z" />
<glyph unicode="g" horiz-adv-x="1351" d="M53 584q0 128 47 239t126.5 186.5t185 118.5t221.5 43q244 0 354 -192h4v156h250v-963q0 -118 -33 -219t-91 -172.5t-135.5 -121.5t-166 -74.5t-184.5 -24.5q-206 0 -361.5 109.5t-206.5 305.5h314q17 -53 54 -88t81 -48t70 -17t49 -4q140 0 239 91t99 216v41h-4 q-17 -25 -37.5 -47.5t-62 -56t-103.5 -54t-135 -20.5q-116 0 -222 47.5t-183.5 127.5t-123 190t-45.5 231zM326 586q0 -142 88 -241t241 -99q150 0 240 95t90 234q0 154 -90.5 246t-239.5 92q-104 0 -180.5 -47.5t-112.5 -120t-36 -159.5z" />
<glyph unicode="h" horiz-adv-x="1228" d="M111 0v1516h272v-467q102 122 293 122q199 0 320.5 -135.5t121.5 -371.5v-664h-272v602q0 91 -20 155t-55 96.5t-72 46t-81 13.5q-235 0 -235 -311v-602h-272z" />
<glyph unicode="i" horiz-adv-x="491" d="M111 0v1135h272v-1135h-272zM111 1266v250h272v-250h-272z" />
<glyph unicode="j" horiz-adv-x="532" d="M37 -115q32 -4 55 7.5t34 28t17 46t6.5 46t0.5 44.5v1078h272v-1078q0 -85 -17.5 -154t-44 -113.5t-64.5 -77.5t-72.5 -50t-74.5 -27t-64 -12t-48 -2v264zM150 1266v250h272v-250h-272z" />
<glyph unicode="k" horiz-adv-x="1187" d="M111 0v1516h272v-916l365 535h321l-410 -555l478 -580h-365l-389 530v-530h-272z" />
<glyph unicode="l" horiz-adv-x="491" d="M111 0v1516h272v-1516h-272z" />
<glyph unicode="m" horiz-adv-x="1925" d="M111 0v1135h249v-105h5q37 53 93 86t104 44t97 11q95 0 186 -43.5t146 -132.5q129 176 363 176q210 0 336.5 -135.5t126.5 -371.5v-664h-273v602q0 311 -223 311q-221 0 -221 -311v-602h-273v602q0 311 -223 311q-221 0 -221 -311v-602h-272z" />
<glyph unicode="n" horiz-adv-x="1228" d="M111 0v1135h249v-105h5q111 141 311 141q199 0 320.5 -135.5t121.5 -371.5v-664h-272v602q0 91 -20 155t-55 96.5t-72 46t-81 13.5q-235 0 -235 -311v-602h-272z" />
<glyph unicode="o" horiz-adv-x="1310" d="M53 565q0 165 77 303.5t216 220.5t309 82t309 -82t216 -220.5t77 -303.5q0 -164 -77.5 -301.5t-216.5 -219t-308 -81.5t-308 81.5t-216.5 219t-77.5 301.5zM326 565q0 -143 91.5 -243.5t237.5 -100.5q147 0 238.5 100.5t91.5 243.5t-91.5 245.5t-238.5 102.5t-238 -102 t-91 -246z" />
<glyph unicode="p" horiz-adv-x="1351" d="M111 -379v1514h249v-148h5q34 56 83.5 95t103 57t95.5 25t82 7q115 0 219 -43.5t181.5 -120.5t123 -191.5t45.5 -248.5q0 -117 -39 -225.5t-110 -193t-180 -135t-240 -50.5q-216 0 -342 160h-4v-502h-272zM367 567q0 -159 91 -252.5t232 -93.5q146 0 241 98.5t95 249.5 q0 60 -19.5 118.5t-57 110t-102.5 83.5t-147 32q-148 0 -240.5 -97.5t-92.5 -248.5z" />
<glyph unicode="q" horiz-adv-x="1351" d="M53 567q0 132 46 246t124 191.5t181.5 122t216.5 44.5q66 0 124 -14.5t96 -34.5t70 -48t47.5 -47t28.5 -40h4v148h250v-1514h-272v502h-4q-116 -160 -342 -160q-250 0 -410 170t-160 434zM326 567q0 -147 86 -246.5t241 -99.5q147 0 239.5 97.5t92.5 244.5 q0 155 -92 252.5t-240 97.5q-146 0 -236.5 -96t-90.5 -250z" />
<glyph unicode="r" horiz-adv-x="655" d="M111 0v1135h249v-103h5q39 73 109 110q58 30 124 30q14 0 29 -1v-264h-3q-241 0 -241 -295v-612h-272z" />
<glyph unicode="s" horiz-adv-x="901" d="M39 356h272q3 -62 45 -98.5t105 -36.5q56 0 91.5 31t35.5 86q0 46 -26 71t-77 46q-32 13 -116 39q-41 13 -73.5 26t-75.5 40.5t-71 60t-48.5 85t-20.5 115.5q0 61 23.5 121t69 112t121 84.5t169.5 32.5q155 0 257.5 -97t108.5 -251h-272q-3 38 -28 64t-74 26 q-52 0 -77.5 -27.5t-25.5 -68.5q0 -30 15.5 -53t42.5 -36t51.5 -21t54.5 -15q7 -1 10 -2q52 -12 89.5 -24t87 -38.5t81 -60t54 -89t22.5 -124.5q0 -167 -113 -279t-296 -112q-96 0 -175 32.5t-130 88t-78.5 125.5t-28.5 147z" />
<glyph unicode="t" horiz-adv-x="614" d="M18 893v242h134v381h272v-381h164v-242h-164v-893h-272v893h-134z" />
<glyph unicode="u" horiz-adv-x="1228" d="M111 520v615h272v-578q0 -33 1 -59t6.5 -62.5t14.5 -64.5t26.5 -57.5t41 -48.5t60 -31.5t81.5 -12.5t81.5 12.5t60.5 31.5t41.5 48.5t26.5 57.5t14 64.5t6.5 62.5t1.5 59v578h272v-1135h-250v104h-4q-112 -141 -295 -141q-88 0 -159.5 22t-118.5 56.5t-81.5 85.5 t-53 98.5t-29.5 106.5t-13.5 100.5t-2.5 87.5z" />
<glyph unicode="v" d="M2 1135h303l262 -746l262 746h304l-459 -1135h-213z" />
<glyph unicode="w" horiz-adv-x="1636" d="M20 1135h289l209 -693l189 693h213l188 -693l209 693h289l-410 -1135h-168l-215 735l-215 -735h-168z" />
<glyph unicode="x" d="M8 0l383 582l-352 553h317l215 -340l215 340h318l-361 -553l396 -582h-336l-230 367l-229 -367h-336z" />
<glyph unicode="y" horiz-adv-x="1187" d="M12 1135h310l260 -727l272 727h309l-651 -1514h-293l209 485z" />
<glyph unicode="z" horiz-adv-x="942" d="M41 0v242l504 651h-447v242h772v-242l-503 -651h538v-242h-864z" />
<glyph unicode="{" horiz-adv-x="696" d="M74 535v184q85 3 133 72q24 33 30.5 67.5t6.5 83.5v299q0 50 3 80.5t21.5 72t53.5 68.5q68 54 186 54h115v-185h-21q-42 0 -72 -13.5t-44 -30t-21.5 -45t-8.5 -44t-1 -42.5v-7v-260q0 -238 -185 -260v-4q185 -22 185 -260v-261v-7q0 -26 1 -42t8.5 -44.5t21.5 -45t44 -30 t72 -13.5h21v-184h-115q-119 0 -186 53q-35 27 -53.5 68.5t-21.5 72t-3 80.5v299q0 33 -1.5 53.5t-10.5 48t-25 50.5q-48 69 -133 72z" />
<glyph unicode="|" horiz-adv-x="1228" d="M494 0v1516h243v-1516h-243z" />
<glyph unicode="}" horiz-adv-x="696" d="M74 -78h20q32 0 56.5 8t40 17.5t26.5 29.5t15.5 31t7 36t2.5 31v29v261q0 238 184 260v4q-184 22 -184 260v260v29t-2.5 31t-7 36t-15.5 31t-26.5 29.5t-40 17.5t-56.5 8h-20v185h114q119 0 187 -54q35 -27 53.5 -68.5t21.5 -72t3 -80.5v-299q0 -34 1.5 -53.5t10 -47 t24.5 -50.5q48 -69 134 -72v-184q-86 -3 -134 -72q-16 -23 -24.5 -51t-10 -47.5t-1.5 -53.5v-299q0 -50 -3 -80.5t-21.5 -72t-53.5 -68.5q-67 -53 -187 -53h-114v184z" />
<glyph unicode="~" horiz-adv-x="1228" d="M98 592q61 128 140 191t165 63q90 0 287 -92q88 -43 144 -43q28 0 53.5 13t46.5 38t35 47t30 53l131 -149q-65 -119 -132 -179.5t-162 -60.5q-108 0 -275 86q-96 49 -153 49q-26 0 -53 -11.5t-63 -51.5t-63 -105z" />
<glyph unicode="&#xa4;" d="M55 465l90 90q-75 125 -75 262q0 152 75 268l-90 89l162 163l90 -90q121 78 264 78q159 0 275 -78l90 90l158 -163l-90 -89q77 -111 77 -266q0 -147 -77 -264l90 -90l-158 -162l-90 90q-114 -80 -264 -80q-167 0 -275 80l-90 -90zM324 819q0 -103 72.5 -177.5 t178.5 -74.5t179 74.5t73 177.5t-73 177.5t-179 74.5t-178.5 -74.5t-72.5 -177.5z" />
<glyph unicode="&#xa6;" horiz-adv-x="1228" d="M498 0v606h243v-606h-243zM498 909v607h243v-607h-243z" />
<glyph unicode="&#xa7;" d="M82 711q0 20 2 41t11.5 58.5t25.5 69.5t49 68.5t78 61.5q-60 78 -60 192q0 59 22 116t68 108.5t130 83.5t194 32q189 0 303 -108.5t117 -276.5h-256q-3 71 -50 108.5t-116 39.5q-76 3 -110.5 -33.5t-34.5 -79.5q0 -49 36 -84.5t103 -69.5l293 -147q196 -100 196 -297 q0 -154 -157 -287q100 -85 100 -252q0 -156 -120 -265t-318 -109q-194 0 -327 115t-142 317h270q0 -87 53 -140t138 -55q89 -1 134.5 41t45.5 96q0 30 -11.5 55t-35.5 44.5t-38.5 28.5t-43.5 24l-324 170q-110 57 -167.5 134.5t-57.5 199.5zM336 733q0 -18 7 -37.5t35 -49.5 t75 -54l311 -160q65 69 65 131q0 50 -32 80t-103 66l-301 155q-57 -50 -57 -131z" />
<glyph unicode="&#xa9;" horiz-adv-x="1515" d="M-31 754q0 160 62.5 306t168.5 251.5t252.5 168t307.5 62.5q160 0 306 -62.5t251.5 -168t168 -251.5t62.5 -306q0 -161 -62.5 -307.5t-168 -252.5t-251.5 -168.5t-306 -62.5q-161 0 -307.5 63t-252 168.5t-168.5 252t-63 307.5zM117 754q0 -174 86 -322t234 -234.5 t323 -86.5q129 0 247.5 50.5t204.5 136.5t137.5 205t51.5 251q0 130 -51 249t-137 204.5t-204.5 136.5t-248.5 51q-131 0 -250 -51t-205 -137t-137 -204.5t-51 -248.5zM322 762q0 192 129 322t317 130q143 0 251 -70.5t163 -195.5h-185q-75 111 -227 111 q-122 0 -203.5 -87.5t-81.5 -209.5q0 -125 82.5 -213t202.5 -88q61 0 120.5 23.5t98.5 78.5h189q-58 -119 -162 -188.5t-244 -69.5q-110 0 -199 42t-142 109.5t-81 146.5t-28 159z" />
<glyph unicode="&#xab;" horiz-adv-x="942" d="M74 547v207l284 266v-252l-137 -117l137 -121v-251zM510 547v207l285 266v-252l-138 -117l138 -121v-251z" />
<glyph unicode="&#xac;" horiz-adv-x="1228" d="M98 727v242h1032v-596h-241v354h-791z" />
<glyph unicode="&#xad;" horiz-adv-x="860" d="M145 530v242h570v-242h-570z" />
<glyph unicode="&#xae;" horiz-adv-x="1515" d="M-31 754q0 160 62.5 306t168.5 251.5t252.5 168t307.5 62.5q160 0 306 -62.5t251.5 -168t168 -251.5t62.5 -306q0 -161 -62.5 -307.5t-168 -252.5t-251.5 -168.5t-306 -62.5q-161 0 -307.5 63t-252 168.5t-168.5 252t-63 307.5zM117 754q0 -174 86 -322t234 -234.5 t323 -86.5q129 0 247.5 50.5t204.5 136.5t137.5 205t51.5 251q0 130 -51 249t-137 204.5t-204.5 136.5t-248.5 51q-131 0 -250 -51t-205 -137t-137 -204.5t-51 -248.5zM496 311v875h256q84 0 147 -21t96.5 -51t54 -71t26 -71.5t5.5 -62.5q0 -106 -66.5 -187t-170.5 -87 l237 -324h-200l-219 324h-3v-324h-163zM659 770h97q49 0 83 12t50 33t22.5 41t6.5 43q0 24 -6.5 44.5t-22.5 41.5t-50 33t-83 12h-97v-260z" />
<glyph unicode="&#xb0;" horiz-adv-x="819" d="M102 1208q0 128 90 218t218 90q126 0 216.5 -91t90.5 -217t-90.5 -216.5t-216.5 -90.5q-127 0 -217.5 90.5t-90.5 216.5zM225 1208q0 -75 55 -129.5t130 -54.5t129.5 54.5t54.5 129.5q0 76 -54.5 130.5t-131.5 54.5q-75 0 -129 -55t-54 -130z" />
<glyph unicode="&#xb1;" horiz-adv-x="1228" d="M98 0v238h1032v-238h-1032zM98 649v238h398v280h237v-280h397v-238h-397v-293h-237v293h-398z" />
<glyph unicode="&#xb6;" horiz-adv-x="1228" d="M76 1094q0 190 125 306t329 116h549v-1778h-211v1556h-168v-1556h-204v938q-178 2 -299 118t-121 300z" />
<glyph unicode="&#xb7;" horiz-adv-x="573" d="M147 514v272h273v-272h-273z" />
<glyph unicode="&#xbb;" horiz-adv-x="942" d="M147 279v251l140 121l-140 117v252l285 -266v-207zM584 279v251l139 121l-139 117v252l284 -266v-207z" />
<glyph unicode="&#x2c6;" horiz-adv-x="1105" d="M145 1270l304 282h215l299 -282h-297l-111 131l-113 -131h-297z" />
<glyph unicode="&#x2dc;" horiz-adv-x="983" d="M152 1458q81 76 204 76q64 0 123.5 -28.5t106.5 -28.5q75 0 141 57l102 -174q-95 -90 -196 -90q-52 0 -127 26q-7 2 -24.5 8t-28.5 9.5t-29 6.5t-37 3q-67 0 -135 -45z" />
<glyph unicode="&#x3bc;" horiz-adv-x="1179" d="M98 -379v1514h273v-566q0 -35 0.5 -59t5 -64t12.5 -67t24 -59.5t38.5 -52t57.5 -33t79 -13.5t78.5 13t57.5 32.5t39.5 50.5t25 59.5t13.5 67t6 64.5t1 61v566h272v-1135h-250v121h-4q-41 -72 -111 -115t-155 -43q-104 0 -190 64v-406h-273z" />
<glyph unicode="&#x401;" horiz-adv-x="1064" d="M139 0v1516h813v-273h-532v-350h510v-272h-510v-349h532v-272h-813zM195 1626v258h280v-258h-280zM616 1626v258h281v-258h-281z" />
<glyph unicode="&#x402;" horiz-adv-x="1433" d="M16 1243v273h1006v-273h-444v-311h292q109 0 196 -27t143 -71.5t93.5 -106t53.5 -126.5t16 -136q0 -207 -140 -336t-362 -129h-102v272h104q98 0 159 52t61 141q0 91 -60.5 142.5t-159.5 51.5h-294v-659h-281v1243h-281z" />
<glyph unicode="&#x403;" horiz-adv-x="901" d="M139 0v1516h758v-273h-477v-1243h-281zM272 1800l496 207l76 -225l-496 -185z" />
<glyph unicode="&#x404;" horiz-adv-x="1597" d="M61 758q0 108 30.5 217t94.5 211t154 181.5t219 127t279 47.5q248 0 436.5 -122.5t281.5 -338.5h-319q-141 189 -397 189q-96 0 -178 -31t-140 -84.5t-98.5 -120t-61.5 -143.5h766v-266h-768q28 -120 102.5 -210t173 -134.5t206.5 -44.5q118 0 217 44.5t164 131.5h325 q-96 -206 -277.5 -327.5t-424.5 -121.5q-128 0 -241 34t-197.5 93.5t-151.5 137t-109 167t-64 181.5t-22 182z" />
<glyph unicode="&#x405;" horiz-adv-x="1064" d="M29 426h293q4 -87 62 -138.5t140 -51.5q91 0 148 53.5t57 136.5q0 51 -17 90.5t-42.5 64t-66.5 46t-76 33t-85.5 29t-81.5 30.5q-81 34 -139 84t-86 105.5t-39.5 104.5t-11.5 99q0 76 29.5 151t84 138t142.5 102t195 39q104 0 188 -37.5t136 -99.5t81 -137t33 -156h-289 q0 64 -40.5 111t-117.5 47q-80 0 -120.5 -46.5t-40.5 -113.5q0 -38 13.5 -67t34 -47t56 -34.5t67 -27t81 -26.5t85.5 -31q21 -9 40 -17.5t52 -28.5t60 -42.5t57 -58t51 -75.5t34.5 -95.5t13.5 -117.5q0 -203 -139 -341t-353 -138q-69 0 -137 18t-131.5 56.5t-112.5 92 t-78 130t-30 166.5z" />
<glyph unicode="&#x406;" horiz-adv-x="573" d="M145 0v1516h281v-1516h-281zM145 1626v258h281v-258h-281z" />
<glyph unicode="&#x407;" horiz-adv-x="696" d="M18 1626v258h281v-258h-281zM209 0v1516h280v-1516h-280zM399 1626v258h281v-258h-281z" />
<glyph unicode="&#x408;" horiz-adv-x="983" d="M14 348h281q13 -112 129 -112q33 0 58 8.5t39.5 25t23.5 33t12.5 42.5t4.5 42t1 41v1088h281v-1070q0 -32 -1 -57t-9 -78.5t-22.5 -94.5t-45 -91t-72 -83t-108.5 -56t-150 -23q-112 0 -207.5 49t-153.5 138t-61 198z" />
<glyph unicode="&#x409;" horiz-adv-x="2048" d="M35 0l964 1516h281v-584h225q109 0 196 -27t143 -71.5t93.5 -106t53.5 -126.5t16 -136q0 -207 -140 -336t-362 -129h-506v1053h-4l-630 -1053h-330zM1280 272h227q98 0 158.5 52t60.5 141q0 91 -60 142.5t-159 51.5h-227v-387z" />
<glyph unicode="&#x40a;" horiz-adv-x="2007" d="M139 0v1516h281v-584h538v584h281v-584h225q109 0 196 -27t143 -71.5t93.5 -106t53.5 -126.5t16 -136q0 -207 -140 -336t-362 -129h-506v659h-538v-659h-281zM1239 272h227q98 0 159 52t61 141q0 91 -60.5 142.5t-159.5 51.5h-227v-387z" />
<glyph unicode="&#x40b;" horiz-adv-x="1474" d="M16 1243v273h1006v-273h-444v-303h276q114 0 206 -18.5t163 -77.5q58 -47 90.5 -116t39.5 -122.5t7 -122.5v-483h-281v446q0 83 -17 123q-13 31 -36 52q-51 47 -170 47h-278v-668h-281v1243h-281z" />
<glyph unicode="&#x40c;" horiz-adv-x="1269" d="M139 0v1516h281v-658l471 658h336l-572 -746l572 -770h-336l-471 664v-664h-281zM436 1800l496 207l76 -225l-496 -185z" />
<glyph unicode="&#x40e;" horiz-adv-x="1433" d="M18 1516h340l400 -807l350 807h307l-686 -1516h-307l178 385zM389 1884h236q7 -51 45 -76.5t88 -25.5t88 25.5t45 76.5h235q-21 -127 -119.5 -207t-248.5 -80t-249 80.5t-120 206.5z" />
<glyph unicode="&#x40f;" horiz-adv-x="1390" d="M139 0v1516h281v-1244h551v1244h280v-1516h-415v-379h-281v379h-416z" />
<glyph unicode="&#x410;" horiz-adv-x="1515" d="M14 0l631 1516h225l631 -1516h-309l-156 391h-557l-155 -391h-310zM586 664h344l-172 442z" />
<glyph unicode="&#x411;" horiz-adv-x="1228" d="M139 0v1516h885v-273h-604v-311h242q99 0 179.5 -22.5t131.5 -56t89 -81.5t56.5 -90t29.5 -91t13 -75t2 -51q0 -207 -139 -336t-362 -129h-523zM420 272h244q108 0 163.5 56.5t55.5 136.5q0 31 -10 61.5t-33 62t-68.5 51t-107.5 19.5h-244v-387z" />
<glyph unicode="&#x412;" horiz-adv-x="1187" d="M139 0v1516h365q33 0 60 -1t84.5 -9t103 -22t100 -44t91.5 -71t62 -106.5t25 -146.5q0 -66 -19 -120t-50 -88t-52.5 -51t-44.5 -30q122 -41 190 -139t68 -227q0 -71 -15.5 -133t-57.5 -123.5t-108 -105.5t-174.5 -71.5t-248.5 -27.5h-379zM420 272h182q19 0 38.5 1.5 t59 12t68.5 29t51.5 57t22.5 91.5q0 22 -3.5 43t-18 50.5t-39 50.5t-71 36.5t-108.5 15.5h-182v-387zM420 932h131q52 0 91 13t59 30t32 41t14.5 39.5t2.5 31.5q0 156 -199 156h-131v-311z" />
<glyph unicode="&#x413;" horiz-adv-x="901" d="M139 0v1516h758v-273h-477v-1243h-281z" />
<glyph unicode="&#x414;" horiz-adv-x="1679" d="M12 272h146l561 1244h246l561 -1244h141v-559h-281v287h-1093v-287h-281v559zM467 272h750l-375 854z" />
<glyph unicode="&#x415;" horiz-adv-x="1064" d="M139 0v1516h813v-273h-532v-350h510v-272h-510v-349h532v-272h-813z" />
<glyph unicode="&#x416;" horiz-adv-x="1925" d="M43 0l543 778l-531 738h324l442 -658v658h281v-658l442 658h324l-531 -730l543 -786h-336l-442 664v-664h-281v664l-442 -664h-336z" />
<glyph unicode="&#x417;" d="M61 467h281q0 -34 10 -68t33.5 -69.5t72 -57.5t115.5 -22q119 0 175.5 55.5t56.5 138.5q0 84 -52.5 143.5t-158.5 59.5h-143v273h122q86 0 134.5 45t48.5 125q0 86 -47 133t-131 47q-78 0 -130.5 -39.5t-56.5 -108.5h-280q1 87 31 162.5t86.5 133.5t147 91t204.5 33 q201 0 328.5 -114t127.5 -302q0 -112 -59.5 -198.5t-157.5 -130.5q113 -29 189.5 -125t76.5 -248q0 -206 -144 -326.5t-378 -120.5q-146 0 -262.5 57t-183 170t-56.5 263z" />
<glyph unicode="&#x418;" horiz-adv-x="1515" d="M139 0v1516h281v-1065l676 1065h280v-1516h-280v1065l-676 -1065h-281z" />
<glyph unicode="&#x419;" horiz-adv-x="1515" d="M139 0v1516h281v-1065l676 1065h280v-1516h-280v1065l-676 -1065h-281zM389 1884h236q7 -51 45 -76.5t88 -25.5t88 25.5t45 76.5h235q-21 -127 -119.5 -207t-248.5 -80t-249 80.5t-120 206.5z" />
<glyph unicode="&#x41a;" horiz-adv-x="1269" d="M139 0v1516h281v-658l471 658h336l-572 -746l572 -770h-336l-471 664v-664h-281z" />
<glyph unicode="&#x41b;" horiz-adv-x="1474" d="M14 0l600 1516h246l600 -1516h-309l-414 1126l-413 -1126h-310z" />
<glyph unicode="&#x41c;" horiz-adv-x="1884" d="M139 0v1516h381l422 -1160l422 1160h381v-1516h-281v1135l-403 -1135h-238l-403 1135v-1135h-281z" />
<glyph unicode="&#x41d;" horiz-adv-x="1392" d="M139 0v1516h281v-609h553v609h280v-1516h-280v635h-553v-635h-281z" />
<glyph unicode="&#x41e;" horiz-adv-x="1720" d="M61 750q0 162 61.5 308t167.5 252.5t254.5 169t315.5 62.5t315.5 -62.5t254.5 -169t167.5 -252.5t61.5 -308q0 -216 -105 -396.5t-288.5 -285.5t-405.5 -105t-405.5 105t-288.5 285.5t-105 396.5zM342 756q0 -142 67.5 -261t186 -189t262.5 -70q147 0 267 71t186.5 189.5 t66.5 259.5q0 140 -67 258t-186.5 187t-264.5 69t-264.5 -69t-186.5 -187t-67 -258z" />
<glyph unicode="&#x41f;" horiz-adv-x="1392" d="M139 0v1516h1114v-1516h-280v1243h-553v-1243h-281z" />
<glyph unicode="&#x420;" d="M139 0v1516h424q100 0 182.5 -19t137.5 -49.5t97 -73.5t65.5 -85t37.5 -90.5t18.5 -84.5t4.5 -72q0 -62 -13.5 -122t-51.5 -124.5t-96.5 -112.5t-157 -79t-224.5 -31h-143v-573h-281zM420 846h166q239 0 239 198q0 44 -12 79t-34 55.5t-45.5 34.5t-53 20t-50.5 8t-44 2 h-166v-397z" />
<glyph unicode="&#x421;" horiz-adv-x="1597" d="M61 758q0 86 22 175.5t64 178t109.5 165.5t152.5 136.5t200 94t245 34.5q235 0 421 -121.5t281 -339.5h-319q-150 189 -381 189q-111 0 -208 -42.5t-163.5 -113.5t-104.5 -164t-38 -192q0 -105 40 -201.5t108.5 -167t164.5 -112t203 -41.5q106 0 201.5 43.5t163.5 132.5 h325q-97 -207 -277.5 -328t-420.5 -121q-153 0 -285 49.5t-222.5 130.5t-155.5 185t-95.5 213.5t-30.5 216.5z" />
<glyph unicode="&#x422;" horiz-adv-x="860" d="M10 1243v273h842v-273h-281v-1243h-280v1243h-281z" />
<glyph unicode="&#x423;" horiz-adv-x="1433" d="M18 1516h340l400 -807l350 807h307l-686 -1516h-307l178 385z" />
<glyph unicode="&#x424;" horiz-adv-x="1761" d="M61 793q0 187 87 336t242.5 233t350.5 86v190h281v-190q195 -2 350.5 -86t242.5 -233t87 -336t-87 -336t-242.5 -233.5t-350.5 -86.5v-213h-281v213q-195 2 -350.5 86.5t-242.5 233.5t-87 336zM342 793q0 -161 109.5 -272.5t289.5 -110.5v766q-180 1 -289.5 -110.5 t-109.5 -272.5zM1022 410q180 -1 289.5 110.5t109.5 272.5t-109.5 272.5t-289.5 110.5v-766z" />
<glyph unicode="&#x425;" horiz-adv-x="1392" d="M10 0l522 758l-522 758h328l358 -527l361 527h327l-524 -758l524 -758h-327l-361 524l-358 -524h-328z" />
<glyph unicode="&#x426;" horiz-adv-x="1433" d="M139 0v1516h281v-1244h553v1244h280v-1244h172v-559h-280v287h-1006z" />
<glyph unicode="&#x427;" horiz-adv-x="1269" d="M86 1030v486h281v-449q0 -37 0.5 -54.5t13.5 -56.5t39 -63q51 -47 170 -47h260v670h280v-1516h-280v573h-258q-113 0 -205.5 19t-163.5 78q-44 36 -73.5 82t-42.5 96.5t-17 91t-4 90.5z" />
<glyph unicode="&#x428;" horiz-adv-x="2048" d="M139 0v1516h281v-1244h463v1244h280v-1244h463v1244h281v-1516h-1768z" />
<glyph unicode="&#x429;" horiz-adv-x="2088" d="M139 0v1516h281v-1244h463v1244h280v-1244h463v1244h281v-1244h172v-559h-281v287h-1659z" />
<glyph unicode="&#x42a;" horiz-adv-x="1392" d="M16 1243v273h609v-584h225q109 0 196 -27t143 -71.5t93.5 -106t53.5 -126.5t16 -136q0 -207 -140 -336t-362 -129h-506v1243h-328zM625 272h227q98 0 158.5 52t60.5 141q0 91 -60 142.5t-159 51.5h-227v-387z" />
<glyph unicode="&#x42b;" horiz-adv-x="1720" d="M139 0v1516h281v-584h225q109 0 196 -27t143 -71.5t93.5 -106t53.5 -126.5t16 -136q0 -207 -140 -336t-362 -129h-506zM420 272h227q98 0 158.5 52t60.5 141q0 91 -60 142.5t-159 51.5h-227v-387zM1300 0v1516h281v-1516h-281z" />
<glyph unicode="&#x42c;" horiz-adv-x="1187" d="M139 0v1516h281v-584h225q109 0 196 -27t143 -71.5t93.5 -106t53.5 -126.5t16 -136q0 -207 -140 -336t-362 -129h-506zM420 272h227q98 0 158.5 52t60.5 141q0 91 -60 142.5t-159 51.5h-227v-387z" />
<glyph unicode="&#x42d;" horiz-adv-x="1597" d="M41 1081q93 215 282.5 338t436.5 123q152 0 282 -47.5t219 -126t152.5 -181t93 -211.5t29.5 -218t-29 -218.5t-92 -214t-152.5 -184.5t-222 -129t-288.5 -49q-243 0 -424.5 121t-278.5 328h326q65 -87 164 -131.5t217 -44.5q110 0 209.5 44.5t173.5 134.5t98 210h-686 v266h684q-20 78 -60 145t-98 120t-140 83.5t-179 30.5q-257 0 -398 -189h-319z" />
<glyph unicode="&#x42e;" horiz-adv-x="2293" d="M139 0v1516h281v-605h252q36 191 154 337t279 220t339 74q164 0 310.5 -62.5t251 -169t165.5 -252.5t61 -308t-61 -307.5t-166 -250.5t-251 -167t-310 -62q-102 0 -204 26.5t-198 82t-173.5 133t-132 188t-72.5 238.5h-244v-631h-281zM936 756q0 -141 66.5 -260.5 t183 -189.5t256.5 -70q143 0 261 71t183.5 190.5t65.5 258.5q0 140 -66.5 258t-183.5 187t-258 69t-258 -69t-183.5 -187t-66.5 -258z" />
<glyph unicode="&#x42f;" horiz-adv-x="1228" d="M72 0l417 559q-180 22 -293.5 145t-113.5 316q0 37 4.5 75t19.5 88.5t39 95t68 89.5t102 76.5t144.5 51.5t191.5 20h439v-1516h-281v588h-4l-406 -588h-327zM362 1018q0 -45 13 -82.5t43 -71t87.5 -52.5t137.5 -19h166v450h-166q-80 0 -137.5 -19t-87.5 -52.5t-43 -71 t-13 -82.5z" />
<glyph unicode="&#x430;" horiz-adv-x="1351" d="M53 557q0 131 44 245.5t119.5 195t179.5 127t220 46.5q246 0 371 -196h4v160h250v-1135h-250v154h-4q-46 -63 -104 -105t-115 -58.5t-92 -22t-68 -5.5q-109 0 -209 42t-177 117t-123 188t-46 247zM326 557q0 -146 92.5 -241t240.5 -95q146 0 236 96.5t90 251.5 q0 150 -90 247t-236 97q-147 0 -240 -100.5t-93 -255.5z" />
<glyph unicode="&#x431;" horiz-adv-x="1310" d="M53 672q0 132 20.5 243.5t53 191t82 144t97.5 105.5t109.5 71t108 44.5t103.5 23t85 10.5t64 2l434 9v-242l-440 -8q-45 -1 -86 -5.5t-95 -17t-99.5 -38t-88.5 -63t-72.5 -97.5t-41.5 -136h4q70 100 179 154.5t249 54.5q236 0 387 -151t151 -400q0 -266 -169.5 -435 t-442.5 -169q-112 0 -203 27.5t-151.5 71t-105.5 107t-69.5 125t-39.5 135.5t-19 129t-4 114zM338 549q0 -151 89 -239.5t235 -88.5q147 0 235 90.5t88 237.5q0 152 -89.5 240t-233.5 88q-141 0 -232.5 -90t-91.5 -238z" />
<glyph unicode="&#x432;" horiz-adv-x="1024" d="M111 0v1135h499q83 0 148 -26.5t103 -70t57.5 -95t19.5 -105.5q0 -79 -48 -141.5t-124 -94.5q98 -28 155.5 -99.5t57.5 -164.5q0 -141 -100.5 -239.5t-282.5 -98.5h-485zM383 233h195q74 0 104.5 35.5t30.5 79.5q0 16 -4.5 32t-16.5 36.5t-41.5 33.5t-72.5 13h-195v-230z M383 696h178q45 0 78 27t33 76q0 41 -26 71.5t-85 30.5h-178v-205z" />
<glyph unicode="&#x433;" horiz-adv-x="778" d="M111 0v1135h643v-242h-371v-893h-272z" />
<glyph unicode="&#x434;" horiz-adv-x="1392" d="M23 242h135l415 893h246l416 -893h135v-529h-266v287h-815v-287h-266v529zM465 242h463l-232 524z" />
<glyph unicode="&#x435;" horiz-adv-x="1310" d="M61 559q0 80 23 163.5t72.5 164t119 144t171 102t219.5 38.5q169 0 303 -80.5t207 -218t73 -305.5q0 -80 -6 -121h-889q26 -104 107 -164.5t190 -60.5q165 0 254 107h307q-31 -74 -76 -133.5t-89.5 -96.5t-98.5 -64.5t-95 -40.5t-86 -20.5t-65 -8.5t-40 -1 q-118 0 -218.5 37t-169.5 98t-118 139t-72 160t-23 162zM350 688h615q-29 105 -111 165t-188 60q-112 0 -197 -61.5t-119 -163.5z" />
<glyph unicode="&#x436;" horiz-adv-x="1720" d="M35 0l414 594l-390 541h322l344 -521v521h272v-521l344 521h322l-389 -541l414 -594h-322l-369 545v-545h-272v545l-369 -545h-321z" />
<glyph unicode="&#x437;" horiz-adv-x="942" d="M51 383h273q0 -68 38.5 -115t116.5 -47q13 0 28 2.5t41.5 12.5t44 37t17.5 67q0 33 -10.5 56.5t-24 35t-32.5 18.5t-30.5 8t-23.5 1h-63v233h51q63 0 91 32.5t28 78.5q0 110 -115 110q-56 0 -90 -31.5t-39 -82.5h-272q10 157 114 264.5t281 107.5q98 0 174 -26.5 t121.5 -72t68.5 -101t23 -117.5q0 -84 -50.5 -149t-133.5 -93q99 -25 152 -101t53 -177q0 -165 -113 -268t-301 -103q-98 0 -174 27.5t-121.5 70t-74.5 100t-39 112t-9 110.5z" />
<glyph unicode="&#x438;" horiz-adv-x="1269" d="M111 0v1135h272v-736l504 736h272v-1135h-272v735l-504 -735h-272z" />
<glyph unicode="&#x439;" horiz-adv-x="1269" d="M111 0v1135h272v-736l504 736h272v-1135h-272v735l-504 -735h-272zM297 1548h205q12 -46 48 -70t85 -24t85 24t48 70h205q-18 -120 -110 -199t-228 -79t-228 79t-110 199z" />
<glyph unicode="&#x43a;" horiz-adv-x="1187" d="M111 0v1135h272v-521l405 521h324l-453 -533l478 -602h-344l-410 545v-545h-272z" />
<glyph unicode="&#x43b;" horiz-adv-x="1187" d="M8 0l463 1135h246l463 -1135h-303l-283 766l-283 -766h-303z" />
<glyph unicode="&#x43c;" horiz-adv-x="1597" d="M111 0v1135h395l293 -807l293 807h395v-1135h-273v834l-303 -834h-225l-303 834v-834h-272z" />
<glyph unicode="&#x43d;" horiz-adv-x="1187" d="M111 0v1135h272v-418h422v418h272v-1135h-272v475h-422v-475h-272z" />
<glyph unicode="&#x43e;" horiz-adv-x="1310" d="M53 565q0 165 77 303.5t216 220.5t309 82t309 -82t216 -220.5t77 -303.5q0 -164 -77.5 -301.5t-216.5 -219t-308 -81.5t-308 81.5t-216.5 219t-77.5 301.5zM326 565q0 -143 91.5 -243.5t237.5 -100.5q147 0 238.5 100.5t91.5 243.5t-91.5 245.5t-238.5 102.5t-238 -102 t-91 -246z" />
<glyph unicode="&#x43f;" horiz-adv-x="1187" d="M111 0v1135h966v-1135h-272v893h-422v-893h-272z" />
<glyph unicode="&#x440;" horiz-adv-x="1351" d="M111 -379v1514h249v-148h5q34 56 83.5 95t103 57t95.5 25t82 7q115 0 219 -43.5t181.5 -120.5t123 -191.5t45.5 -248.5q0 -117 -39 -225.5t-110 -193t-180 -135t-240 -50.5q-216 0 -342 160h-4v-502h-272zM367 567q0 -159 91 -252.5t232 -93.5q146 0 241 98.5t95 249.5 q0 60 -19.5 118.5t-57 110t-102.5 83.5t-147 32q-148 0 -240.5 -97.5t-92.5 -248.5z" />
<glyph unicode="&#x441;" horiz-adv-x="1310" d="M61 575q0 81 23 163.5t72.5 160.5t120.5 138.5t175 97t226 36.5q211 0 362 -112.5t209 -300.5h-307q-79 155 -268 155q-157 0 -248.5 -99.5t-91.5 -242.5q0 -150 93.5 -250t246.5 -100q26 0 53 4t68.5 17t80.5 45.5t66 81.5h307q-65 -186 -210 -296t-351 -110 q-123 0 -228 36.5t-177 97.5t-123 140.5t-75 165t-24 172.5z" />
<glyph unicode="&#x442;" horiz-adv-x="860" d="M20 893v242h818v-242h-273v-893h-272v893h-273z" />
<glyph unicode="&#x443;" horiz-adv-x="1187" d="M12 1135h310l260 -727l272 727h309l-651 -1514h-293l209 485z" />
<glyph unicode="&#x444;" horiz-adv-x="1679" d="M61 567q0 116 46 223.5t128 190.5t204.5 134.5t265.5 55.5v345h272v-345q143 -4 265.5 -55.5t204 -134.5t127.5 -190.5t46 -223.5q0 -64 -17.5 -130.5t-51.5 -133t-88.5 -125.5t-123.5 -105.5t-162.5 -76t-199.5 -33.5v-342h-272v342q-126 5 -234.5 45.5t-182 102.5 t-126 140.5t-77 158.5t-24.5 157zM334 567q0 -156 108.5 -256.5t262.5 -105.5v725q-94 -3 -167 -36t-116.5 -85.5t-65.5 -114t-22 -127.5zM977 205q154 5 262.5 105.5t108.5 256.5q0 66 -22 127.5t-65.5 114t-116.5 85.5t-167 36v-725z" />
<glyph unicode="&#x445;" d="M8 0l383 582l-352 553h317l215 -340l215 340h318l-361 -553l396 -582h-336l-230 367l-229 -367h-336z" />
<glyph unicode="&#x446;" horiz-adv-x="1269" d="M111 0v1135h272v-893h426v893h272v-893h172v-529h-266v287h-876z" />
<glyph unicode="&#x447;" horiz-adv-x="1064" d="M74 730.5q1 28.5 0 55.5v27v322h272v-322v-7q0 -31 1 -48t10 -45t26.5 -43t52.5 -27t86 -12h160v504h272v-1135h-272v389h-160q-73 0 -134.5 8.5t-105 23.5t-78.5 36t-56 45.5t-37 52.5t-22 57.5t-11 59.5t-4 58.5z" />
<glyph unicode="&#x448;" horiz-adv-x="1720" d="M111 0v1135h272v-893h344v893h272v-893h344v893h273v-1135h-1505z" />
<glyph unicode="&#x449;" horiz-adv-x="1802" d="M111 0v1135h272v-893h344v893h272v-893h344v893h273v-893h172v-529h-266v287h-1411z" />
<glyph unicode="&#x44a;" horiz-adv-x="1228" d="M10 893v242h537v-398h244q96 0 170.5 -30t119 -82t67.5 -117t23 -139q0 -170 -106 -269.5t-274 -99.5h-517v893h-264zM547 242h215q12 0 23.5 1t34 8t38.5 19t28.5 38t12.5 61q0 52 -31 89.5t-106 37.5h-215v-254z" />
<glyph unicode="&#x44b;" horiz-adv-x="1515" d="M111 0v1135h272v-398h244q96 0 170.5 -30t119.5 -82t68 -117t23 -139q0 -170 -106.5 -269.5t-274.5 -99.5h-516zM383 242h215q12 0 23.5 1t34 8t38.5 19t28.5 38t12.5 61q0 52 -31 89.5t-106 37.5h-215v-254zM1133 0v1135h272v-1135h-272z" />
<glyph unicode="&#x44c;" horiz-adv-x="1064" d="M111 0v1135h272v-398h244q96 0 170.5 -30t119.5 -82t68 -117t23 -139q0 -170 -106.5 -269.5t-274.5 -99.5h-516zM383 242h215q12 0 23.5 1t34 8t38.5 19t28.5 38t12.5 61q0 52 -31 89.5t-106 37.5h-215v-254z" />
<glyph unicode="&#x44d;" horiz-adv-x="1310" d="M61 369h308q78 -148 266 -148q126 0 210 62t116 163h-469v242h469q-33 112 -122 168.5t-200 56.5q-19 0 -39.5 -2t-54.5 -11t-63.5 -24.5t-61 -46t-51.5 -71.5h-308q57 188 208.5 300.5t365.5 112.5q121 0 224 -36t173.5 -96t120.5 -137.5t73 -160.5t23 -166 q0 -111 -40 -217.5t-114.5 -195.5t-197 -144t-272.5 -55q-204 0 -351.5 110t-212.5 296z" />
<glyph unicode="&#x44e;" horiz-adv-x="1802" d="M111 0v1135h272v-410h178q50 199 208.5 322.5t377.5 123.5q130 0 243 -48t191 -130t123 -193.5t45 -234.5q0 -166 -76.5 -303.5t-215 -218t-310.5 -80.5q-241 0 -403 142.5t-195 361.5h-166v-467h-272zM815 565q0 -143 92.5 -243.5t239.5 -100.5t238.5 100.5t91.5 243.5 t-91.5 245.5t-238.5 102.5t-239.5 -102t-92.5 -246z" />
<glyph unicode="&#x44f;" horiz-adv-x="1105" d="M47 0l342 401q-138 17 -219.5 117t-81.5 240q0 74 27.5 141.5t78.5 120t131 84t177 31.5h493v-1135h-272v436l-336 -436h-340zM360 743q0 -65 44.5 -100t107.5 -35h211v285h-211q-70 0 -111 -41t-41 -109z" />
<glyph unicode="&#x451;" horiz-adv-x="1310" d="M61 559q0 80 23 163.5t72.5 164t119 144t171 102t219.5 38.5q169 0 303 -80.5t207 -218t73 -305.5q0 -80 -6 -121h-889q26 -104 107 -164.5t190 -60.5q165 0 254 107h307q-31 -74 -76 -133.5t-89.5 -96.5t-98.5 -64.5t-95 -40.5t-86 -20.5t-65 -8.5t-40 -1 q-118 0 -218.5 37t-169.5 98t-118 139t-72 160t-23 162zM315 1270v246h273v-246h-273zM350 688h615q-29 105 -111 165t-188 60q-112 0 -197 -61.5t-119 -163.5zM745 1270v246h273v-246h-273z" />
<glyph unicode="&#x452;" horiz-adv-x="1228" d="M-94 1219v233h205v64h272v-64h547v-233h-547v-318q57 68 136 95.5t157 27.5q199 0 320.5 -136t121.5 -372v-418q0 -118 -29.5 -201.5t-103.5 -148.5q-72 -63 -172 -96t-203 -31v258q25 -1 50.5 1t60.5 14.5t61.5 34.5t45 66t18.5 103v348q0 320 -228 320q-53 0 -94 -15 t-65.5 -43.5t-40.5 -59.5t-23 -72t-9.5 -71t-2.5 -67v-438h-272v1219h-205z" />
<glyph unicode="&#x453;" horiz-adv-x="778" d="M111 0v1135h643v-242h-371v-893h-272zM193 1444l460 276l111 -209l-469 -256z" />
<glyph unicode="&#x454;" horiz-adv-x="1310" d="M61 575q0 82 23.5 165t74 160.5t121 137.5t173.5 96.5t223 36.5q212 0 364 -113t209 -300h-307q-24 52 -63 86.5t-83 47.5t-70.5 17t-53.5 4q-120 0 -206.5 -63t-111.5 -162h510v-242h-510q20 -62 58.5 -108t76.5 -67.5t83 -33.5t66 -14t38 -2q58 0 106 15.5t79.5 41.5 t49.5 47t31 44h307q-65 -186 -212 -296t-351 -110q-121 0 -225 36t-176 96.5t-123.5 140t-76 165.5t-24.5 174z" />
<glyph unicode="&#x455;" horiz-adv-x="901" d="M39 356h272q3 -62 45 -98.5t105 -36.5q56 0 91.5 31t35.5 86q0 46 -26 71t-77 46q-32 13 -116 39q-41 13 -73.5 26t-75.5 40.5t-71 60t-48.5 85t-20.5 115.5q0 61 23.5 121t69 112t121 84.5t169.5 32.5q155 0 257.5 -97t108.5 -251h-272q-3 38 -28 64t-74 26 q-52 0 -77.5 -27.5t-25.5 -68.5q0 -65 78 -98q27 -12 96 -29q52 -12 89.5 -24t87 -38.5t81 -60t54 -89t22.5 -124.5q0 -167 -113 -279t-296 -112q-96 0 -175 32.5t-130 88t-78.5 125.5t-28.5 147z" />
<glyph unicode="&#x456;" horiz-adv-x="491" d="M111 0v1135h272v-1135h-272zM111 1266v250h272v-250h-272z" />
<glyph unicode="&#x457;" horiz-adv-x="696" d="M39 1270v246h272v-246h-272zM213 0v1135h272v-1135h-272zM387 1270v246h272v-246h-272z" />
<glyph unicode="&#x458;" horiz-adv-x="532" d="M37 -115q32 -4 55 7.5t34 28t17 46t6.5 46t0.5 44.5v1078h272v-1078q0 -85 -17.5 -154t-44 -113.5t-64.5 -77.5t-72.5 -50t-74.5 -27t-64 -12t-48 -2v264zM150 1266v250h272v-250h-272z" />
<glyph unicode="&#x459;" horiz-adv-x="1720" d="M25 0l645 1135h368v-398h244q96 0 170.5 -30t119.5 -82t68 -117t23 -139q0 -170 -106.5 -269.5t-274.5 -99.5h-516v791h-4l-422 -791h-315zM1038 242h215q12 0 23.5 1t34.5 8t39 19t28.5 38t12.5 61q0 52 -31.5 89.5t-106.5 37.5h-215v-254z" />
<glyph unicode="&#x45a;" horiz-adv-x="1761" d="M111 0v1135h272v-398h424v398h272v-398h244q96 0 170.5 -30t119.5 -82t68 -117t23 -139q0 -170 -106.5 -269.5t-274.5 -99.5h-516v496h-424v-496h-272zM1079 242h215q12 0 23.5 1t34.5 8t39 19t28.5 38t12.5 61q0 52 -31.5 89.5t-106.5 37.5h-215v-254z" />
<glyph unicode="&#x45b;" horiz-adv-x="1228" d="M-94 1219v233h205v64h272v-64h547v-233h-547v-318q57 68 136 95.5t157 27.5q199 0 320.5 -136t121.5 -372v-516h-272v455q0 91 -20 155t-55 96.5t-72 46t-81 13.5q-235 0 -235 -311v-455h-272v1219h-205z" />
<glyph unicode="&#x45c;" horiz-adv-x="1187" d="M111 0v1135h272v-521l405 521h324l-453 -533l478 -602h-344l-410 545v-545h-272zM397 1444l461 276l111 -209l-469 -256z" />
<glyph unicode="&#x45e;" horiz-adv-x="1187" d="M12 1135h310l260 -727l272 727h309l-651 -1514h-293l209 485zM266 1548h205q12 -46 48 -70t85 -24t85 24t48 70h205q-18 -120 -110 -199t-228 -79t-228 79t-110 199z" />
<glyph unicode="&#x45f;" horiz-adv-x="1187" d="M111 0v1135h272v-893h422v893h272v-1135h-350v-328h-266v328h-350z" />
<glyph unicode="&#x490;" horiz-adv-x="942" d="M139 0v1516h518v266h281v-539h-518v-1243h-281z" />
<glyph unicode="&#x491;" horiz-adv-x="819" d="M111 0v1135h417v237h267v-479h-412v-893h-272z" />
<glyph unicode="&#x2000;" horiz-adv-x="1003" />
<glyph unicode="&#x2001;" horiz-adv-x="2007" />
<glyph unicode="&#x2002;" horiz-adv-x="1003" />
<glyph unicode="&#x2003;" horiz-adv-x="2007" />
<glyph unicode="&#x2004;" horiz-adv-x="669" />
<glyph unicode="&#x2005;" horiz-adv-x="501" />
<glyph unicode="&#x2006;" horiz-adv-x="334" />
<glyph unicode="&#x2007;" horiz-adv-x="334" />
<glyph unicode="&#x2008;" horiz-adv-x="250" />
<glyph unicode="&#x2009;" horiz-adv-x="401" />
<glyph unicode="&#x200a;" horiz-adv-x="111" />
<glyph unicode="&#x2010;" horiz-adv-x="860" d="M145 530v242h570v-242h-570z" />
<glyph unicode="&#x2011;" horiz-adv-x="860" d="M145 530v242h570v-242h-570z" />
<glyph unicode="&#x2012;" horiz-adv-x="860" d="M145 530v242h570v-242h-570z" />
<glyph unicode="&#x2013;" horiz-adv-x="1024" d="M0 530v242h1024v-242h-1024z" />
<glyph unicode="&#x2014;" horiz-adv-x="2048" d="M0 530v242h2048v-242h-2048z" />
<glyph unicode="&#x2018;" horiz-adv-x="573" d="M150 983v262v10q0 42 2 68.5t19.5 70t51.5 74.5q77 71 195 74v-137q-50 0 -83.5 -31t-33.5 -84v-35h121v-272h-272z" />
<glyph unicode="&#x2019;" horiz-adv-x="573" d="M150 1241v272h272v-262q0 -37 -1 -52.5t-6.5 -51.5t-22.5 -65t-44 -54q-77 -71 -194 -74v138q50 0 83 30.5t33 83.5v35h-120z" />
<glyph unicode="&#x201a;" horiz-adv-x="573" d="M150 0v272h272v-262q0 -37 -1 -52.5t-6.5 -51.5t-22.5 -65t-44 -54q-77 -71 -194 -74v137q49 0 82.5 30.5t33.5 84.5v35h-120z" />
<glyph unicode="&#x201c;" horiz-adv-x="983" d="M143 983v262q0 37 1 52.5t6.5 51.5t22.5 65t44 54q77 71 195 74v-137q-50 0 -83.5 -31t-33.5 -84v-35h121v-272h-273zM567 983v262q0 37 1 52.5t6.5 51.5t22.5 65t44 54q77 71 195 74v-137q-50 0 -83.5 -31t-33.5 -84v-35h121v-272h-273z" />
<glyph unicode="&#x201d;" horiz-adv-x="983" d="M143 1243v273h273v-263q0 -37 -1 -52.5t-6.5 -51.5t-22.5 -65t-44 -54q-77 -71 -195 -74v138q50 0 83.5 30.5t33.5 83.5v35h-121zM567 1243v273h273v-263q0 -37 -1 -52.5t-6.5 -51.5t-22.5 -65t-44 -54q-77 -71 -195 -74v138q50 0 83.5 30.5t33.5 83.5v35h-121z" />
<glyph unicode="&#x201e;" horiz-adv-x="983" d="M143 0v272h273v-262q0 -37 -1 -52.5t-6.5 -51.5t-22.5 -65t-44 -54q-77 -71 -195 -74v137q50 0 83.5 31t33.5 84v35h-121zM567 0v272h273v-262q0 -37 -1 -52.5t-6.5 -51.5t-22.5 -65t-44 -54q-77 -71 -195 -74v137q50 0 83.5 31t33.5 84v35h-121z" />
<glyph unicode="&#x2020;" d="M106 893v242h334v381h273v-381h329v-242h-329v-1155h-273v1155h-334z" />
<glyph unicode="&#x2021;" d="M106 530v242h330v199h-330v241h330v304h273v-304h333v-241h-333v-199h333v-242h-333v-792h-273v792h-330z" />
<glyph unicode="&#x2022;" horiz-adv-x="1228" d="M205 651q0 169 120 289.5t289 120.5t289.5 -120.5t120.5 -289.5t-120.5 -289t-289.5 -120t-289 120t-120 289z" />
<glyph unicode="&#x2026;" horiz-adv-x="2048" d="M205 0v272h272v-272h-272zM887 0v272h272v-272h-272zM1569 0v272h272v-272h-272z" />
<glyph unicode="&#x202f;" horiz-adv-x="401" />
<glyph unicode="&#x2030;" horiz-adv-x="2621" d="M43 1174q0 152 107.5 260t261.5 108q151 0 258.5 -107.5t107.5 -260.5t-107.5 -261t-258.5 -108q-153 0 -261 108t-108 261zM270 1174q0 -56 42 -99t98 -43t98.5 42t42.5 100t-41.5 99.5t-97.5 41.5q-57 0 -99.5 -42t-42.5 -99zM457 0l626 1516h209l-626 -1516h-209z M973 332q0 154 107 261t261 107t261.5 -107t107.5 -261t-107.5 -261.5t-261.5 -107.5t-261 107.5t-107 261.5zM1200 332q0 -59 41.5 -100.5t99.5 -41.5q59 0 100.5 42t41.5 100t-41.5 99.5t-100.5 41.5t-100 -41.5t-41 -99.5zM1819 332q0 154 107 261t261 107t261.5 -107 t107.5 -261t-107.5 -261.5t-261.5 -107.5t-261 107.5t-107 261.5zM2046 332q0 -59 41.5 -100.5t99.5 -41.5q59 0 100.5 42t41.5 100t-41.5 99.5t-100.5 41.5t-100 -41.5t-41 -99.5z" />
<glyph unicode="&#x205f;" horiz-adv-x="501" />
<glyph unicode="&#x2116;" horiz-adv-x="2252" d="M143 0v1516h281l666 -1024v1024h280v-1516h-280l-666 1024v-1024h-281zM1473 1147q0 153 107.5 261t260.5 108q151 0 259 -108t108 -261t-108 -261t-259 -108q-153 0 -260.5 108t-107.5 261zM1501 422v246h676v-246h-676zM1677 1147q0 -66 48 -115t114 -49t115 48.5 t49 115.5t-48 115.5t-114 48.5q-67 0 -115.5 -48.5t-48.5 -115.5z" />
<glyph unicode="&#x2122;" horiz-adv-x="2048" d="M145 1356v160h703v-160h-252v-668h-199v668h-252zM948 688v828h291l186 -490l187 490h291v-828h-181v668l-243 -668h-107l-244 668v-668h-180z" />
<glyph unicode="&#xe000;" horiz-adv-x="1135" d="M0 0v1135h1135v-1135h-1135z" />
<glyph horiz-adv-x="491" d="M74 547v207l284 266v-252l-137 -117l137 -121v-251z" />
<glyph horiz-adv-x="491" d="M133 279v251l139 121l-139 117v252l285 -266v-207z" />
</font>
</defs>
</svg>
